<svg width="234" height="234" viewBox="0 0 234 234" fill="none" xmlns="http://www.w3.org/2000/svg">
<rect width="234" height="234" rx="117" fill="url(#paint0_linear_38_24)"/>
<path d="M105.83 152C101.423 149.575 96.9623 147.15 92.5547 144.619C85.9168 140.876 79.3321 137.133 72.7473 133.232C64.3039 128.276 55.9136 123.163 47.4702 118.207C44.5496 116.467 41.4165 115.044 38.3365 113.515C36.6903 112.724 36 111.565 36 109.614C36.1062 99.5973 36.1062 89.5807 36 79.564C36 77.508 36.7965 76.3482 38.4958 75.3992C54.1612 66.5952 69.7735 57.7384 85.3858 48.8288C93.7761 44.0841 102.06 39.1813 110.397 34.3311C111.778 33.5403 112.84 32.3278 114.274 31.5897C115.177 31.1152 116.717 30.7462 117.301 31.2207C118.203 31.906 119 33.3822 119 34.4893C118.841 41.29 118.363 48.0908 118.097 54.8915C117.991 57.8965 117.991 60.8488 118.097 63.8538C118.15 66.1207 117.301 67.4387 115.23 68.5985C104.715 74.503 94.3071 80.6711 83.8458 86.6811C79.81 89.0007 75.721 91.1622 71.6321 93.4291C70.9949 93.7982 70.4107 94.2727 69.508 94.9053C71.6321 96.0124 73.3845 96.8559 75.1369 97.8575C76.6769 98.7538 77.6328 99.8082 76.8893 101.917C75.9866 104.447 75.19 107.083 74.8183 109.719C74.2342 113.99 75.3493 118.049 77.261 121.845C80.5003 128.435 85.6513 133.285 91.4926 137.66C96.4312 141.403 100.892 145.779 105.512 149.891C105.937 150.26 106.149 150.946 106.468 151.473C106.255 151.684 106.043 151.842 105.83 152Z" fill="white"/>
<path d="M117.013 203C117.013 200.245 117.013 198.179 117.013 196.113C117.013 187.212 116.96 178.258 117.066 169.358C117.066 168.192 117.754 166.444 118.707 165.914C130.193 159.079 141.785 152.351 153.377 145.676C156.765 143.715 160.205 141.861 164.387 139.477C159.57 136.51 155.441 133.914 151.101 131.212C152.795 128.616 154.489 126.391 155.759 123.901C157.929 119.768 159.676 115.318 159.253 110.603C158.988 107.371 157.665 104.192 156.818 100.96C156.659 100.325 156.765 99.6358 156.712 99C157.453 99.053 158.247 98.947 158.829 99.2649C165.763 103.291 172.697 107.424 179.631 111.45C184.448 114.258 189.318 117.013 194.24 119.662C196.781 121.04 198.051 122.629 197.998 125.808C197.734 135.079 197.84 144.351 197.945 153.623C197.945 155.795 197.31 157.119 195.352 158.232C182.225 165.596 169.098 173.013 156.13 180.589C144.114 187.583 132.257 194.841 120.295 201.94C119.554 202.417 118.601 202.523 117.013 203Z" fill="white"/>
<path d="M117.015 100.875C122.648 92.4006 133.966 91.3878 140.502 95.7585C149.164 101.515 151.927 109.67 148.686 119.371C148.42 120.117 147.888 120.81 147.357 121.29C141.087 127.046 134.763 132.749 128.44 138.452C125.783 140.851 123.179 143.356 120.469 145.755C117.174 148.74 117.068 148.74 113.773 145.808C105.696 138.719 97.7255 131.63 89.5953 124.648C81.3587 117.559 82.6872 104.287 90.4986 97.5707C98.682 90.535 109.416 91.7609 116.218 100.289C116.324 100.556 116.59 100.662 117.015 100.875Z" fill="white"/>
<defs>
<linearGradient id="paint0_linear_38_24" x1="11" y1="249.5" x2="265.5" y2="9.36624e-06" gradientUnits="userSpaceOnUse">
<stop stop-color="#EF1A7F"/>
<stop offset="1" stop-color="#FA6269"/>
</linearGradient>
</defs>
</svg>